<svg width="0" height="0" class="hidden">
    <symbol xmlns="http://www.w3.org/2000/svg" viewBox="0 0 320 512" id="facebook-f">
        <path d="M279.14 288l14.22-92.66h-88.91v-60.13c0-25.35 12.42-50.06 52.24-50.06h40.42V6.26S260.43 0 225.36 0c-73.22 0-121.08 44.38-121.08 124.72v70.62H22.89V288h81.39v224h100.17V288z"></path>
    </symbol>
    <symbol xmlns="http://www.w3.org/2000/svg" viewBox="0 0 18 16" id="telegram-t">
        <path d="M1.2425 6.83106C5.9075 4.79906 9.0175 3.45931 10.5725 2.81206C15.0175 0.963806 15.94 0.642806 16.5425 0.631931C16.675 0.629806 16.97 0.662555 17.1625 0.81818C17.3225 0.94943 17.3675 1.12693 17.39 1.25156C17.41 1.37606 17.4375 1.65981 17.415 1.88131C17.175 4.41131 16.1325 10.5508 15.6025 13.3846C15.38 14.5836 14.9375 14.9856 14.51 15.0248C13.58 15.1103 12.875 14.4108 11.975 13.8211C10.5675 12.8978 9.7725 12.3233 8.405 11.4226C6.825 10.3816 7.85 9.80931 8.75 8.87431C8.985 8.62956 13.08 4.90581 13.1575 4.56806C13.1675 4.52581 13.1775 4.36831 13.0825 4.28531C12.99 4.20206 12.8525 4.23056 12.7525 4.25306C12.61 4.28506 10.3625 5.77206 6.0025 8.71381C5.365 9.15231 4.7875 9.36605 4.2675 9.3548C3.6975 9.34255 2.5975 9.03181 1.78 8.76631C0.779999 8.44056 -0.0175012 8.26831 0.0524988 7.71506C0.0874988 7.42706 0.484999 7.13231 1.2425 6.83106Z"></path>
    </symbol>
    <symbol fill="none" xmlns="http://www.w3.org/2000/svg" viewBox="0 0 16 16" id="chevron-up">
        <path d="M13.3333 5.99999L8 11.3333L2.66666 6"  stroke-width="2" stroke-linecap="round" stroke-linejoin="round"></path>
    </symbol>
    <symbol fill="none" xmlns="http://www.w3.org/2000/svg" viewBox="0 0 27 26" id="star">
        <path fill-rule="evenodd" clip-rule="evenodd" d="M16.6705 9.95398L13.5 0L10.3295 9.95398L0 9.93112L8.37 16.0602L5.15654 26L13.5 19.834L21.8435 26L18.63 16.0602L27 9.93112L16.6705 9.95398ZM21.3367 11.8008L15.3683 11.814L13.5 5.94852L11.6317 11.814L5.6633 11.8008L10.4996 15.3422L8.62007 21.156L13.5 17.5496L18.3799 21.156L16.5004 15.3422L21.3367 11.8008Z" fill="#DDDDDD"></path>
    </symbol>
    <symbol fill="none" xmlns="http://www.w3.org/2000/svg" viewBox="0 0 27 26" id="star-fill">
        <path d="M13.5 0L16.6705 9.95398L27 9.93112L18.63 16.0602L21.8435 26L13.5 19.834L5.15654 26L8.37 16.0602L0 9.93112L10.3295 9.95398L13.5 0Z" fill="#FF9900"></path>
    </symbol>
</svg>